<svg width="40" height="40" viewBox="0 0 40 40" fill="none" xmlns="http://www.w3.org/2000/svg">
<g clip-path="url(#clip0_1077_154)">
<path d="M3 27.2002C3 29.4897 3.00195 31.0265 3.09863 32.21C3.19244 33.3581 3.36042 33.9073 3.54492 34.2695C4.02429 35.2103 4.78966 35.9757 5.73047 36.4551C6.09272 36.6396 6.64192 36.8076 7.79004 36.9014C8.9735 36.998 10.5103 37 12.7998 37H15V40H12.7998C8.59928 40 6.36791 39.9998 4.69531 39.2812L4.36816 39.1279C2.95709 38.409 1.79343 37.2885 1.02148 35.9111L0.87207 35.6318C0.109113 34.1344 0.0138717 32.2321 0.00195312 28.7783L0 27.2002V24.7451H3V27.2002Z" fill="#808080"/>
<path d="M40 27.2002L39.998 28.7783C39.9861 32.2321 39.8909 34.1344 39.1279 35.6318C38.3609 37.1371 37.1371 38.3609 35.6318 39.1279C34.1344 39.8909 32.2321 39.9861 28.7783 39.998L27.2002 40H25V37H27.2002C29.4897 37 31.0265 36.998 32.21 36.9014C33.3581 36.8076 33.9073 36.6396 34.2695 36.4551C35.2103 35.9757 35.9757 35.2103 36.4551 34.2695C36.6396 33.9073 36.8076 33.3581 36.9014 32.21C36.998 31.0265 37 29.4897 37 27.2002V24.7451H40V27.2002Z" fill="#808080"/>
<path d="M15 3H12.7998C10.5103 3 8.9735 3.00195 7.79004 3.09863C6.64192 3.19244 6.09272 3.36042 5.73047 3.54492C4.78966 4.02429 4.02429 4.78966 3.54492 5.73047C3.36042 6.09272 3.19244 6.64192 3.09863 7.79004C3.00195 8.9735 3 10.5103 3 12.7998V14.7451H0V12.7998C1.72106e-10 8.59928 0.000163913 6.36791 0.71875 4.69531L0.87207 4.36816C1.59105 2.95709 2.71146 1.79343 4.08887 1.02148L4.36816 0.87207C6.07943 0.000145555 8.31953 1.83567e-10 12.7998 0H15V3Z" fill="#808080"/>
<path d="M28.7783 0.00195312C32.2321 0.0138717 34.1344 0.109113 35.6318 0.87207C37.1371 1.63906 38.3609 2.86287 39.1279 4.36816C39.9999 6.07943 40 8.31953 40 12.7998V14.7451H37V12.7998C37 10.5103 36.998 8.9735 36.9014 7.79004C36.8076 6.64192 36.6396 6.09272 36.4551 5.73047C35.9757 4.78966 35.2103 4.02429 34.2695 3.54492C33.9073 3.36042 33.3581 3.19244 32.21 3.09863C31.0265 3.00195 29.4897 3 27.2002 3H25V0H27.2002L28.7783 0.00195312Z" fill="#808080"/>
<mask id="mask0_1077_154" style="mask-type:alpha" maskUnits="userSpaceOnUse" x="8" y="8" width="24" height="24">
<rect x="8" y="8" width="24" height="24" fill="#D9D9D9"/>
</mask>
<g mask="url(#mask0_1077_154)">
<path d="M11.9417 29.5332C11.5305 29.3888 11.218 29.1986 11.0042 28.9624C10.7902 28.7263 10.611 28.4027 10.4667 27.9917L28.0582 10.4667C28.4138 10.5777 28.7236 10.7652 28.9874 11.0292C29.2513 11.293 29.4332 11.6083 29.5332 11.9749L11.9417 29.5332ZM10.4667 22.8667V19.8667L19.8667 10.4667H22.8667L10.4667 22.8667ZM10.4667 14.6999V12.5667C10.4667 12 10.675 11.5083 11.0917 11.0917C11.5083 10.675 12 10.4667 12.5667 10.4667H14.6999L10.4667 14.6999ZM25.2999 29.5332L29.5332 25.2999V27.4332C29.5332 27.9998 29.3248 28.4915 28.9082 28.9082C28.4915 29.3248 27.9998 29.5332 27.4332 29.5332H25.2999ZM17.1332 29.5332L29.5332 17.1332V20.1332L20.1332 29.5332H17.1332Z" fill="#808080"/>
</g>
</g>
<defs>
<clipPath id="clip0_1077_154">
<rect width="40" height="40" fill="white"/>
</clipPath>
</defs>
</svg>
