<svg width="275" height="51" viewBox="0 0 275 51" fill="none" xmlns="http://www.w3.org/2000/svg">
<path d="M3.57637 32.24C4.05637 29.712 5.27237 27.712 7.22437 26.24C9.20837 24.736 11.5924 23.984 14.3764 23.984C17.5764 23.984 20.0884 24.896 21.9124 26.72C23.7364 28.544 24.6484 31.184 24.6484 34.64V43.328C24.6484 43.936 24.7604 44.384 24.9844 44.672C25.2404 44.928 25.6404 45.056 26.1844 45.056H27.3364V50H25.9444C24.4724 50 23.2724 49.648 22.3444 48.944C21.4164 48.24 20.8244 47.296 20.5684 46.112C20.0244 47.392 19.0164 48.464 17.5444 49.328C16.0724 50.16 14.3924 50.576 12.5044 50.576C10.7444 50.576 9.16037 50.288 7.75237 49.712C6.34437 49.136 5.22437 48.304 4.39237 47.216C3.56037 46.096 3.14437 44.8 3.14437 43.328C3.14437 41.664 3.52837 40.288 4.29637 39.2C5.06437 38.112 6.15237 37.264 7.56037 36.656C9.00037 36.048 10.8564 35.536 13.1284 35.12L19.0804 33.968C19.0484 32.336 18.6004 31.104 17.7364 30.272C16.8724 29.408 15.7044 28.976 14.2324 28.976C12.9844 28.976 11.9284 29.312 11.0644 29.984C10.2004 30.656 9.64037 31.52 9.38437 32.576L3.57637 32.24ZM9.04837 43.04C9.08037 43.84 9.44837 44.496 10.1524 45.008C10.8564 45.52 11.8964 45.776 13.2724 45.776C14.3924 45.776 15.3844 45.536 16.2484 45.056C17.1444 44.544 17.8484 43.824 18.3604 42.896C18.8724 41.936 19.1284 40.816 19.1284 39.536V38.624L14.4724 39.44L13.6564 39.536C12.5364 39.76 11.6564 39.984 11.0164 40.208C10.4084 40.432 9.91237 40.768 9.52837 41.216C9.17637 41.664 9.01637 42.272 9.04837 43.04ZM45.9896 24.56V50H40.4216V24.56H45.9896ZM45.2696 24.56V29.504H31.6376V24.56H45.2696ZM53.3816 45.056V50H31.6376V45.056H53.3816ZM45.9416 15.92V21.248H40.1336V15.92H45.9416ZM57.1549 26.528C57.3469 24.32 57.9709 22.368 59.0269 20.672C60.0829 18.944 61.5229 17.6 63.3469 16.64C65.1709 15.648 67.2349 15.152 69.5389 15.152C71.7469 15.152 73.7309 15.6 75.4909 16.496C77.2509 17.36 78.6269 18.576 79.6189 20.144C80.6109 21.68 81.1069 23.408 81.1069 25.328C81.1069 27.6 80.3709 29.648 78.8989 31.472C77.4589 33.264 75.4269 34.896 72.8029 36.368C70.8509 37.424 68.8989 38.736 66.9469 40.304C65.0269 41.872 63.9549 43.344 63.7309 44.72H81.2989V50H56.5309C56.5309 47.024 56.9789 44.528 57.8749 42.512C58.7709 40.496 59.9389 38.8 61.3789 37.424C62.8509 36.048 64.8509 34.576 67.3789 33.008C67.9549 32.624 68.5309 32.272 69.1069 31.952C69.5549 31.632 70.0029 31.328 70.4509 31.04C71.9549 30.048 73.1069 29.104 73.9069 28.208C74.7069 27.28 75.1069 26.304 75.1069 25.28C75.1069 24.384 74.8669 23.568 74.3869 22.832C73.9069 22.096 73.2509 21.52 72.4189 21.104C71.5869 20.656 70.6269 20.432 69.5389 20.432C67.7789 20.432 66.3389 21.024 65.2189 22.208C64.1309 23.36 63.4429 24.928 63.1549 26.912L57.1549 26.528ZM101.008 32.624C100.784 31.472 100.192 30.576 99.2321 29.936C98.3041 29.296 97.1841 28.976 95.8721 28.976C94.6881 28.976 93.6961 29.248 92.8961 29.792C92.1281 30.304 91.7761 31.024 91.8401 31.952C91.8401 32.592 92.0481 33.104 92.4641 33.488C92.9121 33.872 93.4561 34.176 94.0961 34.4C94.7361 34.624 95.6481 34.896 96.8321 35.216C97.1521 35.28 97.4241 35.344 97.6481 35.408C99.5681 35.856 101.2 36.4 102.544 37.04C103.888 37.68 104.976 38.512 105.808 39.536C106.64 40.56 107.056 41.792 107.056 43.232C107.056 45.632 106.096 47.456 104.176 48.704C102.256 49.952 99.7761 50.576 96.7361 50.576C94.6881 50.576 92.8161 50.224 91.1201 49.52C89.4561 48.784 88.0961 47.76 87.0401 46.448C86.0161 45.104 85.4401 43.568 85.3121 41.84L91.2641 41.552C91.3601 42.384 91.6481 43.104 92.1281 43.712C92.6401 44.32 93.2961 44.784 94.0961 45.104C94.8961 45.424 95.7761 45.584 96.7361 45.584C98.0481 45.584 99.1201 45.392 99.9521 45.008C100.784 44.592 101.2 43.936 101.2 43.04C101.2 42.464 100.992 42 100.576 41.648C100.192 41.264 99.6801 40.96 99.0401 40.736C98.4321 40.512 97.6161 40.288 96.5921 40.064L95.4881 39.776C92.5121 39.072 90.1761 38.128 88.4801 36.944C86.8161 35.728 85.9841 34.096 85.9841 32.048C85.9841 30.416 86.4321 28.992 87.3281 27.776C88.2561 26.56 89.5041 25.632 91.0721 24.992C92.6401 24.32 94.3841 23.984 96.3041 23.984C99.0561 23.984 101.408 24.752 103.36 26.288C105.312 27.792 106.496 29.808 106.912 32.336L101.008 32.624ZM125.421 50H118.797L109.677 24.56H115.581L122.109 43.856L128.589 24.56H134.541L125.421 50ZM135.819 37.28C135.819 34.592 136.315 32.256 137.307 30.272C138.299 28.256 139.691 26.704 141.483 25.616C143.307 24.528 145.435 23.984 147.867 23.984C149.947 23.984 151.835 24.448 153.531 25.376C155.259 26.304 156.651 27.744 157.707 29.696C158.795 31.648 159.387 34.096 159.483 37.04V38.72H141.771C141.963 40.896 142.587 42.592 143.643 43.808C144.699 44.992 146.107 45.584 147.867 45.584C149.051 45.584 150.107 45.264 151.035 44.624C151.995 43.952 152.715 43.024 153.195 41.84L159.099 42.416C158.395 44.88 157.003 46.864 154.923 48.368C152.875 49.84 150.523 50.576 147.867 50.576C145.435 50.576 143.307 50.032 141.483 48.944C139.691 47.856 138.299 46.32 137.307 44.336C136.315 42.32 135.819 39.968 135.819 37.28ZM153.435 34.736C153.115 32.784 152.443 31.344 151.419 30.416C150.427 29.456 149.243 28.976 147.867 28.976C146.267 28.976 144.955 29.488 143.931 30.512C142.907 31.504 142.235 32.912 141.915 34.736H153.435ZM184.808 45.056V50H162.92V45.056H184.808ZM171.56 50V23.648C171.56 22.688 171.336 21.984 170.888 21.536C170.472 21.088 169.8 20.864 168.872 20.864H162.92V15.92H168.872C171.56 15.92 173.608 16.576 175.016 17.888C176.424 19.2 177.128 21.12 177.128 23.648V50H171.56ZM196.021 17.84V41.648C196.021 42.704 196.293 43.536 196.837 44.144C197.413 44.752 198.229 45.056 199.285 45.056H205.237V50H198.565C195.845 50 193.813 49.344 192.469 48.032C191.125 46.688 190.453 44.752 190.453 42.224V17.84H196.021ZM205.333 24.56V29.504H183.589V24.56H205.333ZM210.642 37.28C210.642 34.592 211.138 32.256 212.13 30.272C213.122 28.256 214.514 26.704 216.306 25.616C218.13 24.528 220.258 23.984 222.69 23.984C224.77 23.984 226.658 24.448 228.354 25.376C230.082 26.304 231.474 27.744 232.53 29.696C233.618 31.648 234.21 34.096 234.306 37.04V38.72H216.594C216.786 40.896 217.41 42.592 218.466 43.808C219.522 44.992 220.93 45.584 222.69 45.584C223.874 45.584 224.93 45.264 225.858 44.624C226.818 43.952 227.538 43.024 228.018 41.84L233.922 42.416C233.218 44.88 231.826 46.864 229.746 48.368C227.698 49.84 225.346 50.576 222.69 50.576C220.258 50.576 218.13 50.032 216.306 48.944C214.514 47.856 213.122 46.32 212.13 44.336C211.138 42.32 210.642 39.968 210.642 37.28ZM228.258 34.736C227.938 32.784 227.266 31.344 226.242 30.416C225.25 29.456 224.066 28.976 222.69 28.976C221.09 28.976 219.778 29.488 218.754 30.512C217.73 31.504 217.058 32.912 216.738 34.736H228.258Z" fill="#747474"/>
<mask id="path-2-outside-1_595_52" maskUnits="userSpaceOnUse" x="240" y="0" width="35" height="30" fill="black">
<rect fill="white" x="240" width="35" height="30"/>
<path d="M240 0H275V26H240V0Z"/>
</mask>
<path d="M275 26V22H240V26V30H275V26Z" fill="#FF3E00" mask="url(#path-2-outside-1_595_52)"/>
<path d="M251.352 14.88C251.352 16.6267 250.918 17.9733 250.052 18.92C249.185 19.8533 247.938 20.32 246.312 20.32C244.685 20.32 243.438 19.8533 242.572 18.92C241.705 17.9733 241.272 16.6267 241.272 14.88V5.78H244.332V15.3C244.332 16.02 244.498 16.58 244.832 16.98C245.178 17.38 245.672 17.58 246.312 17.58C246.952 17.58 247.438 17.38 247.772 16.98C248.118 16.58 248.292 16.02 248.292 15.3V5.78H251.352V14.88ZM262.284 8.54H259.024V17.26H262.304V20H252.704V17.26H255.984V8.54H252.724V5.8H262.284V8.54ZM274.096 5.8L270.696 12.86L274.136 20H270.616L268.696 15.34L266.776 20H263.256L266.696 12.86L263.296 5.8H266.796L268.696 10.36L270.616 5.8H274.096Z" fill="white"/>
</svg>
