<svg width="40" height="40" viewBox="0 0 40 40" fill="none" xmlns="http://www.w3.org/2000/svg">
<g clip-path="url(#clip0_118_2)">
<mask id="mask0_118_2" style="mask-type:alpha" maskUnits="userSpaceOnUse" x="0" y="0" width="40" height="40">
<rect width="40" height="40" rx="8" fill="#D9D9D9"/>
</mask>
<g mask="url(#mask0_118_2)">
<path d="M8.1484 15.9684C9.3495 14.4522 11.6504 14.4522 12.8515 15.9685L32.1955 40.3871C33.7533 42.3537 32.3527 45.25 29.8439 45.25H-8.844C-11.3528 45.25 -12.7534 42.3537 -11.1956 40.3871L8.1484 15.9684Z" fill="#626262"/>
<path d="M32.1952 40.3865C33.4789 42.0069 32.7531 44.2572 31.0546 44.9998H15.6005C13.0834 44.9998 11.685 42.0865 13.2596 40.1228L22.6796 28.3748L32.1952 40.3865ZM28.6591 20.9187C29.86 19.421 32.1398 19.421 33.3407 20.9187L48.7401 40.1228C50.3148 42.0865 48.9164 44.9998 46.3993 44.9998H34.0204C35.124 43.3115 35.2203 40.9845 33.7635 39.1453L23.9628 26.7742L28.6591 20.9187Z" fill="#626262"/>
</g>
<rect x="1.5" y="1.5" width="37" height="37" rx="6.5" stroke="#626262" stroke-width="3"/>
<path d="M24.9379 18.4655C24.6157 19.3361 23.3843 19.3361 23.0621 18.4655L21.9988 15.592C21.8976 15.3182 21.6818 15.1024 21.408 15.0012L18.5345 13.9379C17.6639 13.6157 17.6639 12.3843 18.5345 12.0621L21.408 10.9988C21.6818 10.8976 21.8976 10.6818 21.9988 10.408L23.0621 7.5345C23.3843 6.66389 24.6157 6.66389 24.9379 7.5345L26.0012 10.408C26.1024 10.6818 26.3182 10.8976 26.592 10.9988L29.4655 12.0621C30.3361 12.3843 30.3361 13.6157 29.4655 13.9379L26.592 15.0012C26.3182 15.1024 26.1024 15.3182 26.0012 15.592L24.9379 18.4655Z" fill="#626262"/>
</g>
<defs>
<clipPath id="clip0_118_2">
<rect width="40" height="40" fill="white"/>
</clipPath>
</defs>
</svg>
