<svg width="726" height="119" viewBox="0 0 726 119" fill="none" xmlns="http://www.w3.org/2000/svg">
<path d="M1.64117 57.6398C3.24117 49.3198 7.29451 42.7065 13.8012 37.7998C20.3078 32.7865 28.0945 30.2798 37.1612 30.2798C47.8278 30.2798 56.2012 33.3198 62.2812 39.3998C68.3612 45.4798 71.4012 54.2798 71.4012 65.7998V96.5198C71.4012 98.4398 71.8278 99.8265 72.6812 100.68C73.5345 101.533 74.8145 101.96 76.5212 101.96H80.2012V117H75.7212C70.8145 117 66.8145 115.827 63.7212 113.48C60.6278 111.133 58.6545 107.987 57.8012 104.04C56.0945 108.2 52.7878 111.72 47.8812 114.6C43.0812 117.48 37.4812 118.92 31.0812 118.92C25.3212 118.92 20.0945 117.96 15.4012 116.04C10.7078 114.12 6.97451 111.347 4.20117 107.72C1.53451 103.987 0.201172 99.6665 0.201172 94.7598C0.201172 89.2132 1.48117 84.6798 4.04117 81.1598C6.60117 77.6398 10.1745 74.9198 14.7612 72.9998C19.4545 70.9732 25.5345 69.2665 33.0012 67.8798L54.4412 63.8798C54.3345 57.9065 52.6812 53.3732 49.4812 50.2798C46.3878 47.1865 42.1745 45.6398 36.8412 45.6398C32.3612 45.6398 28.5745 46.8665 25.4812 49.3198C22.3878 51.7732 20.3612 54.9198 19.4012 58.7598L1.64117 57.6398ZM17.9612 94.1198C18.0678 97.1065 19.4012 99.5598 21.9612 101.48C24.6278 103.293 28.4678 104.2 33.4812 104.2C37.4278 104.2 41.0012 103.293 44.2012 101.48C47.5078 99.6665 50.0678 97.0532 51.8812 93.6398C53.8012 90.2265 54.7612 86.1732 54.7612 81.4798V78.1198L37.6412 81.1598L34.7612 81.6398C30.7078 82.3865 27.5612 83.1332 25.3212 83.8798C23.0812 84.6265 21.2678 85.7998 19.8812 87.3998C18.6012 88.9998 17.9612 91.2398 17.9612 94.1198Z" fill="white"/>
<path d="M137.099 32.1998V117H120.139V32.1998H137.099ZM135.499 32.1998V47.0798H90.5387V32.1998H135.499ZM162.059 101.96V117H90.5387V101.96H162.059ZM136.939 3.39984V20.6798H118.859V3.39984H136.939Z" fill="white"/>
<path d="M173.996 38.2798C174.85 31.0265 177.036 24.5732 180.556 18.9198C184.076 13.2665 188.823 8.83984 194.796 5.63984C200.77 2.43984 207.543 0.839844 215.116 0.839844C222.263 0.839844 228.716 2.27984 234.476 5.15984C240.236 8.03984 244.716 12.0398 247.916 17.1598C251.223 22.2798 252.876 27.9865 252.876 34.2798C252.876 41.8532 250.37 48.6265 245.356 54.5998C240.45 60.5732 233.41 66.2265 224.236 71.5598C217.73 75.1865 211.116 79.7732 204.396 85.3198C197.783 90.8665 194.209 95.9865 193.676 100.68H253.516V117H171.916C171.916 107.187 173.516 98.8665 176.716 92.0398C180.023 85.2132 184.129 79.6132 189.036 75.2398C194.049 70.7598 200.716 65.8532 209.036 60.5198C210.849 59.3465 212.663 58.2265 214.476 57.1598C215.969 56.0932 217.516 55.0798 219.116 54.1198C224.129 50.7065 227.97 47.3998 230.636 44.1998C233.303 40.9998 234.636 37.6398 234.636 34.1198C234.636 30.8132 233.783 27.9332 232.076 25.4798C230.476 22.9198 228.183 20.8932 225.196 19.3998C222.21 17.9065 218.849 17.1598 215.116 17.1598C208.929 17.1598 203.809 19.1332 199.756 23.0798C195.809 27.0265 193.303 32.4665 192.236 39.3998L173.996 38.2798Z" fill="white"/>
<path d="M314.894 58.9198C314.04 54.7598 311.907 51.5065 308.494 49.1598C305.08 46.8132 300.974 45.6398 296.174 45.6398C292.014 45.6398 288.494 46.6532 285.614 48.6798C282.84 50.5998 281.507 53.2665 281.614 56.6798C281.614 58.9198 282.36 60.7865 283.854 62.2798C285.347 63.6665 287.16 64.7865 289.294 65.6398C291.534 66.3865 294.627 67.2398 298.574 68.1998C299.534 68.4132 300.387 68.6265 301.134 68.8398C307.64 70.4398 313.134 72.2532 317.614 74.2798C322.094 76.3065 325.774 79.0265 328.654 82.4398C331.534 85.7465 332.974 89.8532 332.974 94.7598C332.974 102.653 329.774 108.68 323.374 112.84C316.974 116.893 308.867 118.92 299.054 118.92C292.334 118.92 286.2 117.747 280.654 115.4C275.107 112.947 270.627 109.533 267.214 105.16C263.8 100.787 261.88 95.7198 261.454 89.9598L279.374 88.9998C279.8 91.8798 280.867 94.4398 282.574 96.6798C284.387 98.9198 286.734 100.627 289.614 101.8C292.494 102.867 295.64 103.4 299.054 103.4C303.747 103.4 307.587 102.707 310.574 101.32C313.667 99.8265 315.214 97.3732 315.214 93.9598C315.214 91.8265 314.467 90.1198 312.974 88.8398C311.587 87.5598 309.827 86.5465 307.694 85.7998C305.56 85.0532 302.734 84.2532 299.214 83.3998L295.694 82.5998C285.774 80.2532 277.987 77.1598 272.334 73.3198C266.68 69.4798 263.854 64.0932 263.854 57.1598C263.854 51.7198 265.347 46.9732 268.334 42.9198C271.427 38.8665 275.534 35.7732 280.654 33.6398C285.774 31.3998 291.427 30.2798 297.614 30.2798C306.68 30.2798 314.414 32.7865 320.814 37.7998C327.214 42.8132 331.107 49.5332 332.494 57.9598L314.894 58.9198Z" fill="white"/>
<path d="M392.271 117H371.951L341.231 32.1998H359.311L382.031 98.5998L404.751 32.1998H422.831L392.271 117Z" fill="white"/>
<path d="M423.569 74.5998C423.569 65.6398 425.169 57.8532 428.369 51.2398C431.675 44.5198 436.315 39.3465 442.289 35.7198C448.262 32.0932 455.249 30.2798 463.249 30.2798C469.969 30.2798 476.102 31.8265 481.649 34.9198C487.302 37.9065 491.889 42.6532 495.409 49.1598C498.929 55.5598 500.849 63.6665 501.169 73.4798L501.329 79.2398H441.489C442.129 86.9198 444.315 92.8932 448.049 97.1598C451.889 101.32 456.955 103.4 463.249 103.4C467.409 103.4 471.142 102.28 474.449 100.04C477.862 97.7998 480.422 94.6532 482.129 90.5998L500.049 92.0398C497.702 100.253 493.115 106.813 486.289 111.72C479.569 116.52 471.889 118.92 463.249 118.92C455.249 118.92 448.262 117.107 442.289 113.48C436.315 109.853 431.675 104.733 428.369 98.1198C425.169 91.3998 423.569 83.5598 423.569 74.5998ZM482.929 66.2798C481.862 59.2398 479.515 54.0665 475.889 50.7598C472.369 47.3465 468.155 45.6398 463.249 45.6398C457.489 45.6398 452.742 47.4532 449.009 51.0798C445.382 54.7065 443.035 59.7732 441.969 66.2798H482.929Z" fill="white"/>
<path d="M580.946 101.96V117H509.106V101.96H580.946ZM538.226 117V27.8798C538.226 24.5732 537.479 22.1732 535.986 20.6798C534.493 19.0798 532.2 18.2798 529.106 18.2798H509.106V3.39984H529.106C537.533 3.39984 543.933 5.47984 548.306 9.63984C552.786 13.7998 555.026 19.8798 555.026 27.8798V117H538.226Z" fill="white"/>
<path d="M608.084 9.79984V90.5998C608.084 94.1198 608.99 96.8932 610.804 98.9198C612.724 100.947 615.444 101.96 618.964 101.96H639.284V117H617.364C608.51 117 601.897 114.867 597.524 110.6C593.257 106.227 591.124 99.9865 591.124 91.8798V9.79984H608.084ZM639.604 32.1998V47.0798H568.404V32.1998H639.604Z" fill="white"/>
<path d="M647.381 74.5998C647.381 65.6398 648.981 57.8532 652.181 51.2398C655.488 44.5198 660.128 39.3465 666.101 35.7198C672.075 32.0932 679.061 30.2798 687.061 30.2798C693.781 30.2798 699.915 31.8265 705.461 34.9198C711.115 37.9065 715.701 42.6532 719.221 49.1598C722.741 55.5598 724.661 63.6665 724.981 73.4798L725.141 79.2398H665.301C665.941 86.9198 668.128 92.8932 671.861 97.1598C675.701 101.32 680.768 103.4 687.061 103.4C691.221 103.4 694.955 102.28 698.261 100.04C701.675 97.7998 704.234 94.6532 705.941 90.5998L723.861 92.0398C721.515 100.253 716.928 106.813 710.101 111.72C703.381 116.52 695.701 118.92 687.061 118.92C679.061 118.92 672.075 117.107 666.101 113.48C660.128 109.853 655.488 104.733 652.181 98.1198C648.981 91.3998 647.381 83.5598 647.381 74.5998ZM706.741 66.2798C705.674 59.2398 703.328 54.0665 699.701 50.7598C696.181 47.3465 691.968 45.6398 687.061 45.6398C681.301 45.6398 676.554 47.4532 672.821 51.0798C669.194 54.7065 666.848 59.7732 665.781 66.2798H706.741Z" fill="white"/>
</svg>
